<svg width="65.164062" height="80.000000" viewBox="0 0 65.1641 80" fill="none" xmlns="http://www.w3.org/2000/svg" xmlns:xlink="http://www.w3.org/1999/xlink">
	<desc>
			Created with Pixso.
	</desc>
	<defs/>
	<path id="Vector" d="M29.27 25.93C29.88 26.16 30.56 25.85 30.79 25.25L31.18 24.22L33.95 24.22L34.34 25.25C34.52 25.71 34.96 26 35.44 26C35.57 26 35.71 25.98 35.85 25.93C36.46 25.7 36.76 25.02 36.53 24.42L33.83 17.24C33.82 17.23 33.82 17.22 33.81 17.21C33.61 16.71 33.12 16.38 32.58 16.38C32.58 16.38 32.58 16.38 32.58 16.38C32.03 16.38 31.55 16.71 31.34 17.21C31.34 17.22 31.33 17.23 31.33 17.24L28.6 24.41C28.37 25.02 28.67 25.7 29.27 25.93ZM33.07 21.87L32.07 21.87L32.57 20.56L33.07 21.87Z" fill="#46A358" fill-opacity="1.000000" fill-rule="nonzero"/>
	<path id="Vector" d="M38.91 26C39.55 26 40.08 25.48 40.08 24.83L40.08 21.33L42.85 25.35C43.19 25.83 43.75 26.03 44.28 25.87C44.83 25.7 45.18 25.19 45.18 24.58L45.11 17.54C45.1 16.9 44.58 16.38 43.94 16.38C43.93 16.38 43.93 16.38 43.93 16.38C43.28 16.39 42.76 16.92 42.77 17.57L42.8 21.14L39.87 16.9C39.58 16.48 39.05 16.3 38.56 16.45C38.07 16.6 37.74 17.06 37.74 17.57L37.74 24.83C37.74 25.48 38.26 26 38.91 26Z" fill="#46A358" fill-opacity="1.000000" fill-rule="nonzero"/>
	<path id="Vector" d="M47.83 26C48.47 26 49 25.48 49 24.83L49 23.56L51.18 25.68C51.41 25.89 51.71 26 52 26C52.3 26 52.61 25.88 52.84 25.65C53.29 25.18 53.28 24.44 52.81 23.99L49.77 21.05L52.53 18.51C53.01 18.07 53.04 17.33 52.6 16.85C52.16 16.38 51.42 16.35 50.95 16.78L49 18.58L49 17.56C49 16.91 48.47 16.38 47.83 16.38C47.18 16.38 46.65 16.91 46.65 17.56L46.65 24.83C46.65 25.48 47.18 26 47.83 26Z" fill="#46A358" fill-opacity="1.000000" fill-rule="nonzero"/>
	<path id="Vector" d="M20.98 26C21.63 26 22.16 25.48 22.16 24.83L22.16 22.24L24.85 22.24L24.85 24.83C24.85 25.48 25.37 26 26.02 26C26.67 26 27.19 25.48 27.19 24.83L27.19 17.56C27.19 16.91 26.67 16.38 26.02 16.38C25.37 16.38 24.85 16.91 24.85 17.56L24.85 19.9L22.16 19.9L22.16 17.56C22.16 16.91 21.63 16.38 20.98 16.38C20.34 16.38 19.81 16.91 19.81 17.56L19.81 24.83C19.81 25.48 20.34 26 20.98 26Z" fill="#46A358" fill-opacity="1.000000" fill-rule="nonzero"/>
	<path id="Vector" d="M18.23 31.64L20.36 34.9L20.35 38.27C20.35 38.92 20.87 39.44 21.52 39.44L21.52 39.44C22.17 39.44 22.69 38.92 22.7 38.27L22.7 34.9L24.82 31.65C25.17 31.11 25.02 30.38 24.48 30.03C23.94 29.68 23.21 29.83 22.86 30.37L21.53 32.41L20.19 30.35C19.84 29.81 19.11 29.66 18.57 30.01C18.03 30.37 17.87 31.09 18.23 31.64Z" fill="#46A358" fill-opacity="1.000000" fill-rule="nonzero"/>
	<path id="Vector" d="M36.3 36C36.3 37.19 36.87 38.16 37.99 38.87C38.58 39.25 39.24 39.44 39.96 39.44L39.96 39.44C40.58 39.44 41.16 39.31 41.69 39.04C42.99 38.39 43.71 37.31 43.71 36L43.71 30.99C43.71 30.35 43.18 29.82 42.53 29.82C41.89 29.82 41.36 30.35 41.36 30.99L41.36 36C41.36 36.3 41.27 36.63 40.63 36.95C40.43 37.05 40.21 37.1 39.96 37.1C39.96 37.1 39.96 37.1 39.96 37.1C39.69 37.1 39.46 37.03 39.25 36.9C38.69 36.55 38.65 36.27 38.65 36L38.65 30.99C38.65 30.35 38.12 29.82 37.48 29.82C36.83 29.82 36.3 30.35 36.3 30.99L36.3 36L36.3 36Z" fill="#46A358" fill-opacity="1.000000" fill-rule="nonzero"/>
	<path id="Vector" d="M13.34 18.73L14.17 18.73L14.17 24.83C14.17 25.48 14.69 26 15.34 26C15.99 26 16.51 25.48 16.51 24.83L16.51 18.73L17.36 18.73C18.01 18.73 18.53 18.2 18.53 17.56C18.53 16.91 18.01 16.38 17.36 16.38L13.34 16.38C12.69 16.38 12.17 16.91 12.17 17.56C12.17 18.2 12.69 18.73 13.34 18.73Z" fill="#46A358" fill-opacity="1.000000" fill-rule="nonzero"/>
	<path id="Vector" d="M30.21 29.82C27.56 29.82 25.4 31.98 25.4 34.63C25.4 37.28 27.56 39.44 30.21 39.44C32.86 39.44 35.02 37.28 35.02 34.63C35.02 31.98 32.86 29.82 30.21 29.82ZM30.21 37.1C28.85 37.1 27.74 35.99 27.74 34.63C27.74 33.27 28.85 32.17 30.21 32.17C31.57 32.17 32.67 33.27 32.67 34.63C32.67 35.99 31.57 37.1 30.21 37.1Z" fill="#46A358" fill-opacity="1.000000" fill-rule="nonzero"/>
	<path id="Vector" d="M63.37 28.07L59.92 24.47L59.92 9.46C59.92 7.37 58.22 5.67 56.13 5.67L41.87 5.67C41.87 5.67 41.86 5.66 41.86 5.66L39.09 2.77C37.37 0.98 35.06 0 32.58 0C30.1 0 27.78 0.98 26.07 2.77L23.28 5.67L9.02 5.67C6.93 5.67 5.23 7.37 5.23 9.46L5.23 24.48L1.78 28.07C0.63 29.27 0 30.84 0 32.51L0 76.21C0 78.3 1.7 80 3.78 80L61.37 80C63.46 80 65.16 78.3 65.16 76.21L65.16 32.51C65.16 30.84 64.52 29.27 63.37 28.07ZM61.68 29.69C62.41 30.45 62.82 31.45 62.82 32.51L62.82 35.16L59.92 38.17L59.92 27.86L61.68 29.69ZM27.76 4.39C29.03 3.07 30.74 2.34 32.58 2.34C34.41 2.34 36.12 3.07 37.4 4.39L38.62 5.67L26.53 5.67L27.76 4.39ZM9.02 8.01L56.13 8.01C56.93 8.01 57.58 8.66 57.58 9.46L57.58 40.62L45.14 53.57L39.09 47.27C37.37 45.48 35.06 44.49 32.58 44.49C30.1 44.49 27.78 45.48 26.07 47.27L20.01 53.57L7.57 40.62L7.57 9.46C7.57 8.66 8.22 8.01 9.02 8.01ZM18.39 55.27L2.34 71.98L2.34 38.55L18.39 55.27ZM2.34 32.51C2.34 31.45 2.74 30.45 3.47 29.69L5.23 27.86L5.23 38.17L2.34 35.16L2.34 32.51ZM61.37 77.65L3.78 77.65C2.99 77.65 2.34 77 2.34 76.21L2.34 75.37L27.76 48.89C29.03 47.57 30.74 46.84 32.58 46.84C34.41 46.84 36.12 47.57 37.4 48.89L46.81 58.69C47.26 59.16 48 59.18 48.47 58.73C48.93 58.28 48.95 57.54 48.5 57.07L46.77 55.27L62.82 38.55L62.82 71.98L52.27 61C51.82 60.53 51.08 60.52 50.61 60.96C50.14 61.41 50.13 62.15 50.58 62.62L62.82 75.37L62.82 76.21C62.82 77 62.17 77.65 61.37 77.65Z" fill="#46A358" fill-opacity="1.000000" fill-rule="nonzero"/>
</svg>
